<svg width="1291" height="242" viewBox="0 0 1291 242" fill="none" xmlns="http://www.w3.org/2000/svg">
<path d="M1211.69 165.577V103.472C1211.69 96.7088 1211.06 90.5095 1209.79 84.8738C1208.52 79.163 1206.47 74.2036 1203.64 69.9956C1200.88 65.7125 1197.26 62.4062 1192.79 60.0768C1188.39 57.7474 1183.02 56.5827 1176.68 56.5827C1170.86 56.5827 1165.72 57.5971 1161.24 59.6259C1156.84 61.6548 1153.11 64.5853 1150.05 68.4176C1147.07 72.1747 1144.8 76.7584 1143.23 82.1687C1141.66 87.579 1140.88 93.7407 1140.88 100.654L1129.25 98.0614C1129.25 85.5877 1131.41 75.1053 1135.74 66.6142C1140.06 58.1231 1146.03 51.6984 1153.63 47.3401C1161.24 42.9819 1169.97 40.8027 1179.81 40.8027C1187.05 40.8027 1193.35 41.9299 1198.72 44.1841C1204.16 46.4384 1208.75 49.4817 1212.48 53.314C1216.28 57.1462 1219.34 61.5421 1221.65 66.5015C1223.96 71.3857 1225.64 76.6082 1226.68 82.1687C1227.73 87.6541 1228.25 93.1395 1228.25 98.6249V165.577H1211.69ZM1124.33 165.577V43.846H1139.2V73.8279H1140.88V165.577H1124.33Z" fill="#0D0D0D"/>
<path d="M1048.11 168.958C1039.01 168.958 1031.36 167.305 1025.17 163.999C1019.06 160.692 1014.47 156.297 1011.41 150.811C1008.36 145.326 1006.83 139.352 1006.83 132.89C1006.83 126.277 1008.13 120.641 1010.74 115.983C1013.43 111.249 1017.04 107.379 1021.59 104.373C1026.22 101.367 1031.55 99.0755 1037.59 97.4976C1043.71 95.9947 1050.45 94.6797 1057.84 93.5526C1065.3 92.3503 1072.57 91.3359 1079.65 90.5093C1086.81 89.6076 1093.08 88.7434 1098.45 87.9169L1092.63 91.5237C1092.85 79.5009 1090.54 70.5965 1085.69 64.8105C1080.85 59.0246 1072.42 56.1316 1060.41 56.1316C1052.13 56.1316 1045.12 58.0101 1039.38 61.7673C1033.71 65.5244 1029.72 71.4607 1027.41 79.5761L1011.41 74.8421C1014.17 63.9464 1019.73 55.4929 1028.08 49.4815C1036.43 43.4701 1047.29 40.4644 1060.63 40.4644C1071.67 40.4644 1081.03 42.5684 1088.71 46.7763C1096.47 50.9092 1101.95 56.9206 1105.16 64.8105C1106.65 68.3422 1107.62 72.2872 1108.07 76.6455C1108.51 81.0038 1108.74 85.4372 1108.74 89.9457V165.577H1094.08V135.031L1098.33 136.835C1094.23 147.28 1087.86 155.245 1079.2 160.73C1070.55 166.215 1060.19 168.958 1048.11 168.958ZM1050.01 154.643C1057.69 154.643 1064.4 153.253 1070.14 150.473C1075.89 147.693 1080.51 143.898 1084.02 139.089C1087.52 134.205 1089.79 128.719 1090.84 122.633C1091.73 118.725 1092.22 114.442 1092.29 109.783C1092.37 105.049 1092.41 101.518 1092.41 99.1883L1098.67 102.457C1093.08 103.208 1087 103.96 1080.44 104.711C1073.95 105.463 1067.53 106.327 1061.19 107.304C1054.93 108.281 1049.26 109.445 1044.19 110.798C1040.76 111.775 1037.44 113.165 1034.23 114.968C1031.03 116.696 1028.38 119.026 1026.29 121.956C1024.28 124.887 1023.27 128.531 1023.27 132.89C1023.27 136.421 1024.13 139.84 1025.84 143.147C1027.63 146.453 1030.47 149.196 1034.35 151.375C1038.3 153.554 1043.52 154.643 1050.01 154.643Z" fill="#0D0D0D"/>
<path d="M981.397 165.577L981.509 85.6627C981.509 76.2699 978.899 68.9059 973.678 63.5708C968.532 58.1605 961.97 55.4554 953.99 55.4554C949.44 55.4554 945.003 56.5074 940.677 58.6114C936.352 60.7154 932.772 64.0968 929.938 68.7556C927.179 73.4144 925.799 79.501 925.799 87.0152L916.066 84.1974C915.842 75.4809 917.521 67.8539 921.1 61.3165C924.755 54.7791 929.751 49.707 936.091 46.1001C942.504 42.4181 949.739 40.5771 957.793 40.5771C969.949 40.5771 979.682 44.3718 986.991 51.9612C994.299 59.4755 997.954 69.6573 997.954 82.5067L997.842 165.577H981.397ZM837.199 165.577V43.8458H851.966V73.8277H853.756V165.577H837.199ZM909.466 165.577L909.578 86.7898C909.578 77.0964 907.005 69.4695 901.859 63.9089C896.788 58.2732 890.076 55.4554 881.723 55.4554C873.37 55.4554 866.621 58.3484 861.475 64.1343C856.329 69.8452 853.756 77.4721 853.756 87.0152L843.911 81.605C843.911 73.7902 845.739 66.8019 849.393 60.6402C853.047 54.4034 858.044 49.5191 864.383 45.9874C870.722 42.3806 877.919 40.5771 885.974 40.5771C893.655 40.5771 900.479 42.2303 906.446 45.5366C912.486 48.8428 917.222 53.652 920.653 59.9639C924.083 66.2759 925.799 73.9404 925.799 82.9576L925.687 165.577H909.466Z" fill="#0D0D0D"/>
<path d="M764.094 168.62C756.86 168.62 750.521 167.493 745.077 165.238C739.707 162.984 735.12 159.941 731.317 156.109C727.588 152.276 724.567 147.918 722.255 143.034C719.944 138.074 718.266 132.852 717.221 127.367C716.177 121.806 715.655 116.283 715.655 110.798V43.8457H732.212V105.951C732.212 112.639 732.846 118.838 734.113 124.549C735.381 130.26 737.395 135.257 740.154 139.54C742.988 143.748 746.605 147.016 751.006 149.346C755.48 151.675 760.887 152.84 767.226 152.84C773.044 152.84 778.152 151.826 782.552 149.797C787.027 147.768 790.756 144.875 793.739 141.118C796.797 137.285 799.109 132.664 800.675 127.254C802.241 121.769 803.024 115.607 803.024 108.769L814.659 111.361C814.659 123.835 812.496 134.317 808.17 142.808C803.845 151.3 797.878 157.724 790.271 162.083C782.664 166.441 773.939 168.62 764.094 168.62ZM804.702 165.577V135.595H803.024V43.8457H819.469V165.577H804.702Z" fill="#0D0D0D"/>
<path d="M578.153 165.576V3.26855H594.598V76.4198H683.645V3.26855H699.978V165.576H683.645V92.3125H594.598V165.576H578.153Z" fill="#0D0D0D"/>
<path d="M505.055 165.577V43.8458H525.862V73.3769L522.954 69.5446C524.445 65.6372 526.384 62.0679 528.771 58.8368C531.157 55.5305 533.917 52.8254 537.049 50.7214C540.107 48.4671 543.5 46.7388 547.229 45.5366C551.032 44.2591 554.911 43.5077 558.863 43.2823C562.816 42.9817 566.619 43.1696 570.274 43.8458V65.9378C566.321 64.8858 561.921 64.5852 557.073 65.0361C552.3 65.4869 547.9 67.0273 543.873 69.6573C540.069 72.137 537.049 75.1427 534.812 78.6744C532.649 82.2061 531.083 86.1511 530.113 90.5094C529.144 94.7925 528.659 99.3386 528.659 104.148V165.577H505.055Z" fill="#0D0D0D"/>
<path d="M438.565 168.958C426.557 168.958 416.004 166.328 406.906 161.068C397.882 155.733 390.834 148.331 385.763 138.864C380.766 129.32 378.268 118.274 378.268 105.726C378.268 92.4254 380.729 80.8911 385.651 71.1225C390.648 61.354 397.583 53.8022 406.458 48.467C415.333 43.1319 425.662 40.4644 437.446 40.4644C449.751 40.4644 460.23 43.3573 468.881 49.1433C477.532 54.8542 483.983 63.0071 488.234 73.6022C492.56 84.1973 494.275 96.7837 493.38 111.361H469.999V102.795C469.85 88.6683 467.165 78.2235 461.945 71.4607C456.799 64.6978 448.931 61.3164 438.341 61.3164C426.632 61.3164 417.832 65.036 411.94 72.4751C406.048 79.9142 403.102 90.6596 403.102 104.711C403.102 118.087 406.048 128.456 411.94 135.82C417.832 143.109 426.334 146.753 437.446 146.753C444.755 146.753 451.056 145.1 456.352 141.794C461.721 138.413 465.898 133.604 468.881 127.367L491.814 134.693C487.115 145.589 479.993 154.042 470.447 160.054C460.901 165.99 450.273 168.958 438.565 168.958ZM395.495 111.361V92.989H481.746V111.361H395.495Z" fill="#0D0D0D"/>
<path d="M319 168.958C307.44 168.958 297.745 166.14 289.914 160.505C282.083 154.794 276.154 147.092 272.127 137.398C268.1 127.705 266.086 116.772 266.086 104.599C266.086 92.4254 268.063 81.4922 272.015 71.7988C276.043 62.1054 281.934 54.4784 289.69 48.9179C297.521 43.2822 307.142 40.4644 318.552 40.4644C329.888 40.4644 339.658 43.2822 347.862 48.9179C356.14 54.4784 362.517 62.1054 366.991 71.7988C371.466 81.417 373.703 92.3503 373.703 104.599C373.703 116.772 371.466 127.742 366.991 137.511C362.591 147.204 356.289 154.869 348.086 160.505C339.957 166.14 330.261 168.958 319 168.958ZM262.171 219.679V43.8458H282.978V131.424H285.663V219.679H262.171ZM315.756 147.655C323.214 147.655 329.366 145.739 334.214 141.907C339.136 138.075 342.791 132.927 345.177 126.465C347.638 119.928 348.869 112.639 348.869 104.599C348.869 96.6334 347.638 89.4197 345.177 82.9575C342.791 76.4952 339.099 71.3479 334.102 67.5157C329.105 63.6834 322.729 61.7673 314.973 61.7673C307.664 61.7673 301.623 63.5707 296.85 67.1775C292.152 70.7844 288.646 75.8189 286.334 82.2812C284.097 88.7434 282.978 96.1826 282.978 104.599C282.978 113.014 284.097 120.454 286.334 126.916C288.572 133.378 292.114 138.45 296.962 142.132C301.81 145.814 308.074 147.655 315.756 147.655Z" fill="#0D0D0D"/>
<path d="M183.587 168.845C175.234 168.845 168.224 167.493 162.556 164.788C156.888 162.083 152.264 158.551 148.684 154.193C145.179 149.759 142.494 144.95 140.63 139.765C138.765 134.58 137.497 129.508 136.826 124.549C136.155 119.589 135.819 115.231 135.819 111.474V43.8457H159.535V103.697C159.535 108.431 159.908 113.315 160.654 118.35C161.474 123.309 162.966 127.93 165.129 132.213C167.366 136.496 170.461 139.953 174.414 142.583C178.441 145.213 183.662 146.528 190.075 146.528C194.252 146.528 198.204 145.852 201.933 144.499C205.662 143.071 208.907 140.817 211.666 137.736C214.5 134.655 216.7 130.598 218.266 125.563C219.907 120.529 220.727 114.405 220.727 107.191L235.27 112.714C235.27 123.76 233.219 133.528 229.117 142.019C225.016 150.435 219.124 157.01 211.442 161.744C203.761 166.478 194.476 168.845 183.587 168.845ZM223.524 165.577V130.41H220.727V43.8457H244.331V165.577H223.524Z" fill="#0D0D0D"/>
<path d="M65.8903 168.958C54.3306 168.958 43.8896 166.967 34.5672 162.984C25.3195 158.927 17.6752 153.178 11.6343 145.739C5.66798 138.225 1.78989 129.32 0 119.026L24.3872 115.306C26.8483 125.225 31.9943 132.965 39.8251 138.525C47.6558 144.011 56.7917 146.753 67.2327 146.753C73.7211 146.753 79.6874 145.739 85.1316 143.71C90.5759 141.606 94.9387 138.638 98.2202 134.806C101.576 130.898 103.254 126.239 103.254 120.829C103.254 117.899 102.732 115.306 101.688 113.052C100.719 110.798 99.3389 108.844 97.549 107.191C95.8337 105.463 93.7082 103.997 91.1725 102.795C88.7114 101.518 85.9893 100.428 83.0061 99.5263L41.7268 87.2405C37.6996 86.0382 33.5977 84.4978 29.4213 82.6192C25.2449 80.6655 21.4041 78.1483 17.8989 75.0674C14.4683 71.9114 11.6716 68.0416 9.50879 63.4579C7.34601 58.7991 6.26462 53.1634 6.26462 46.5508C6.26462 36.5569 8.80029 28.1033 13.8716 21.1902C19.0176 14.2019 25.9534 8.94197 34.6791 5.41026C43.4048 1.80342 53.1746 0 63.9886 0C74.8771 0.150283 84.6096 2.10399 93.1861 5.86112C101.837 9.61825 108.997 15.0285 114.665 22.0919C120.407 29.0802 124.36 37.5713 126.523 47.5652L101.464 51.8484C100.346 45.7618 97.9592 40.5394 94.3048 36.1812C90.6505 31.7477 86.1757 28.3663 80.8807 26.0369C75.5856 23.6323 69.843 22.3925 63.653 22.3173C57.6867 22.1671 52.2051 23.0688 47.2083 25.0225C42.2862 26.9762 38.3335 29.7189 35.3503 33.2506C32.4418 36.7823 30.9875 40.84 30.9875 45.4237C30.9875 49.9322 32.2926 53.5766 34.9029 56.3569C37.5131 59.1372 40.72 61.3539 44.5235 63.007C48.4016 64.585 52.2424 65.9 56.0459 66.952L85.8029 75.4056C89.5318 76.4576 93.7455 77.8853 98.4439 79.6887C103.217 81.417 107.804 83.8591 112.204 87.0151C116.678 90.1711 120.37 94.3791 123.279 99.639C126.187 104.824 127.642 111.361 127.642 119.251C127.642 127.442 126.001 134.655 122.719 140.892C119.438 147.054 114.926 152.239 109.183 156.447C103.515 160.58 96.9524 163.698 89.4945 165.802C82.0366 167.906 74.1686 168.958 65.8903 168.958Z" fill="#0D0D0D"/>
<path d="M1247.7 61.6929C1243.64 61.6929 1239.87 60.8091 1236.32 59.3025C1232.83 57.7758 1229.76 55.6063 1227.15 52.9145C1224.54 50.2227 1222.44 47.1291 1220.99 43.674C1219.53 40.2189 1218.77 36.4825 1218.77 32.6055C1218.77 28.7285 1219.53 24.9319 1220.99 21.4366C1222.5 17.9212 1224.54 14.8276 1227.15 12.1358C1229.76 9.44403 1232.85 7.33479 1236.32 5.8081C1239.81 4.28141 1243.58 3.51807 1247.58 3.51807C1251.59 3.51807 1255.54 4.28141 1259.03 5.86836C1262.52 7.45532 1265.59 9.60473 1268.2 12.2965C1270.81 15.0486 1272.84 18.1421 1274.3 21.5973C1275.75 25.0524 1276.51 28.7285 1276.51 32.6055C1276.51 36.4825 1275.75 40.2189 1274.3 43.674C1272.78 47.1291 1270.75 50.2227 1268.14 52.9145C1265.53 55.6063 1262.44 57.7758 1258.97 59.3025C1255.48 60.8894 1251.71 61.6528 1247.7 61.6929ZM1247.7 57.1932C1252.17 57.1932 1256.24 56.0884 1259.96 53.8586C1263.67 51.6289 1266.64 48.6558 1268.86 44.8994C1271.07 41.163 1272.17 37.065 1272.17 32.5452C1272.17 28.0254 1271.07 23.9476 1268.86 20.1911C1266.64 16.4547 1263.69 13.4616 1259.96 11.2319C1256.26 9.00209 1252.19 7.89725 1247.7 7.89725C1243.22 7.89725 1239.17 9.00209 1235.44 11.2319C1231.73 13.4616 1228.76 16.4347 1226.55 20.1911C1224.34 23.9275 1223.24 28.0254 1223.24 32.5452C1223.24 37.065 1224.34 41.1429 1226.55 44.8994C1228.76 48.6357 1231.71 51.6289 1235.44 53.8586C1239.15 56.0884 1243.22 57.1932 1247.7 57.1932ZM1239.53 46.4863V17.9814L1249.82 17.9814C1252.03 17.9814 1253.82 18.7448 1255.34 20.3317C1256.85 21.9187 1257.55 23.9074 1257.55 26.2376C1257.55 28.1661 1256.97 29.9338 1255.82 31.3801C1254.66 32.8466 1253.21 33.7706 1251.41 34.1925L1258.55 46.4863H1253.32L1246.29 34.313H1243.91V46.4863L1239.45 46.4863H1239.57H1239.53ZM1243.99 29.8534H1249.8C1250.67 29.8534 1251.49 29.512 1252.13 28.7486C1252.77 28.0455 1253.13 27.1617 1253.13 26.2376C1253.13 25.193 1252.79 24.3092 1252.13 23.5458C1251.49 22.8427 1250.73 22.441 1249.8 22.441H1243.99V29.8735V29.8534Z" fill="#0D0D0D"/>
<path d="M1230.75 124.751C1233.21 124.827 1235.26 125.992 1236.67 127.766L1236.95 128.141L1237.14 128.423C1238.09 129.853 1238.76 131.586 1238.76 133.557C1238.76 134.505 1238.55 135.368 1238.4 135.921C1238.22 136.552 1237.98 137.219 1237.71 137.89C1237.36 138.769 1236.92 140.136 1236.38 142.076C1235.97 143.939 1235.55 146.372 1235.12 149.411C1234.81 152.39 1234.64 156.095 1234.64 160.56C1234.64 164.554 1234.8 168.73 1235.14 173.089C1235.58 177.474 1236.14 181.8 1236.81 186.068C1237.48 190.351 1238.21 194.398 1238.98 198.211C1239.88 202.028 1240.76 205.357 1241.63 208.207C1242.24 210.22 1242.82 211.903 1243.34 213.279C1244.39 212.85 1245.58 212.376 1246.9 211.859C1249.07 210.89 1251.4 209.991 1253.88 209.158C1256.17 208.32 1258.47 207.571 1260.77 206.912L1261.77 206.632C1262.97 206.271 1264.31 205.919 1265.77 205.576C1267.38 205.115 1268.89 204.707 1270.29 204.354C1271.7 204 1272.94 203.7 1274.03 203.457L1274.09 203.444L1274.14 203.434C1274.74 203.313 1275.26 203.215 1275.68 203.144C1275.95 203.099 1276.61 202.985 1277.22 202.985L1277.76 202.996C1279.06 203.052 1280.73 203.34 1282.23 204.382C1284.3 205.812 1285.15 208.006 1285.15 210.064C1285.15 212.485 1284.05 214.59 1282.21 215.992L1281.83 216.264C1280.51 217.152 1278.48 218.256 1275.95 219.532C1273.36 220.834 1270.5 222.183 1267.38 223.583L1267.38 223.584C1264.38 224.978 1261.22 226.428 1257.88 227.936C1254.53 229.451 1251.45 230.797 1248.65 231.972C1245.93 233.113 1243.55 234.052 1241.52 234.778C1240.67 235.151 1239.99 235.448 1239.48 235.658C1239.22 235.768 1238.96 235.873 1238.73 235.957C1238.62 235.997 1238.46 236.054 1238.28 236.109C1238.19 236.136 1238.04 236.181 1237.86 236.223C1237.76 236.245 1237.29 236.356 1236.68 236.356C1234.21 236.356 1232.48 234.982 1231.55 234.048C1230.55 233.044 1229.74 231.797 1229.06 230.564L1229 230.467L1228.95 230.366C1227.74 227.921 1226.61 224.842 1225.54 221.234L1225.53 221.212L1225.52 221.19C1224.44 217.442 1223.44 213.199 1222.5 208.476L1222.5 208.463L1222.5 208.451C1221.57 203.65 1220.7 198.623 1219.88 193.371L1219.88 193.316L1219.87 193.261C1219.17 187.989 1218.59 182.66 1218.13 177.275L1218.12 177.216L1218.12 177.157C1217.77 171.635 1217.59 166.333 1217.59 161.252C1217.59 153.761 1217.94 147.664 1218.69 143.098L1218.7 143.029L1218.72 142.962C1219.54 138.694 1220.48 135.123 1221.64 132.507L1221.69 132.4L1221.74 132.295C1222.33 131.111 1222.95 130.003 1223.64 129.057C1224.22 128.244 1225.08 127.22 1226.27 126.465C1226.64 126.203 1226.99 125.958 1227.31 125.76C1227.48 125.651 1227.73 125.498 1228.02 125.354C1228.16 125.284 1228.39 125.172 1228.69 125.066C1228.88 124.998 1229.57 124.747 1230.5 124.747L1230.75 124.751Z" fill="white" stroke="white" stroke-width="10.3493"/>
<path d="M1182.15 134.274C1183.65 134.348 1185.09 134.929 1186.03 135.344C1186.39 135.48 1187.1 135.651 1188.37 135.651C1188.59 135.651 1188.82 135.629 1189.06 135.58C1190.02 135.386 1191 135.305 1191.97 135.305C1196.02 135.305 1199.71 137.216 1202.92 139.884C1206.26 142.457 1209.23 145.745 1211.86 149.649C1214.64 153.599 1216.94 158.058 1218.78 162.989C1220.74 167.828 1222.05 172.76 1222.69 177.779L1222.78 178.379C1222.95 179.641 1223.07 180.823 1223.08 181.879C1223.2 182.906 1223.26 183.934 1223.26 184.964C1223.26 188.28 1222.81 192.019 1221.97 196.13C1221.19 200.547 1219.77 204.772 1217.71 208.788L1217.71 208.787C1215.68 212.858 1212.91 216.394 1209.42 219.367L1209.41 219.373L1209.4 219.378C1205.44 222.737 1200.51 224.239 1195.07 224.239C1189.92 224.239 1185.07 222.781 1180.63 219.981L1180.58 219.95L1180.53 219.918C1176.36 217.164 1172.69 213.71 1169.5 209.599L1169.48 209.569L1169.46 209.538C1166.28 205.318 1163.76 200.664 1161.87 195.597L1161.84 195.526L1161.82 195.454C1160.05 190.231 1159.14 184.997 1159.14 179.772C1159.14 172.893 1159.55 166.875 1160.42 161.771L1160.42 161.722L1160.43 161.674C1161.2 157.602 1162.22 153.862 1163.5 150.483C1163.14 149.627 1162.96 148.741 1162.93 147.892L1162.92 147.577L1162.93 147.248C1163.01 145.628 1163.72 144.38 1164.22 143.651C1164.79 142.81 1165.51 142.081 1166.19 141.471L1166.29 141.381L1166.39 141.297C1167.82 140.151 1169.4 139.116 1171.12 138.181C1172.85 137.195 1174.56 136.361 1176.26 135.696C1177.91 134.988 1179.92 134.266 1181.84 134.266L1182.15 134.274ZM1182.92 153.471C1182.86 153.505 1182.66 153.63 1182.36 153.987C1181.54 155.144 1180.69 156.819 1179.91 159.154C1179.21 161.592 1178.64 164.463 1178.21 167.793C1177.78 171.154 1177.56 174.512 1177.56 177.868C1177.56 178.581 1177.81 180.595 1178.51 184.361C1179.11 187.467 1180.17 190.808 1181.73 194.394C1183.31 197.652 1185.36 200.558 1187.92 203.129C1189.84 205.064 1192.25 206.1 1195.58 206.1C1197.52 206.1 1198.69 205.568 1199.53 204.799C1200.89 203.407 1201.98 201.701 1202.76 199.603L1202.79 199.516L1202.83 199.431C1203.82 197.026 1204.51 194.589 1204.9 192.115C1205.33 189.281 1205.53 187.031 1205.53 185.311C1205.53 183.706 1205.17 181.041 1204.28 177.109L1204.28 177.093L1204.27 177.079C1203.44 173.302 1202.19 169.622 1200.51 166.037L1200.5 166.011L1200.49 165.985C1198.85 162.359 1196.88 159.281 1194.61 156.703L1194.58 156.66L1194.54 156.617C1192.76 154.503 1191.25 153.962 1189.91 153.962H1188.02L1187.52 153.861C1187.38 153.833 1187.05 153.79 1186.48 153.79H1186.11L1185.74 153.737C1185.14 153.651 1184.64 153.617 1184.24 153.617H1183.81L1183.39 153.545C1183.2 153.514 1183.05 153.49 1182.92 153.47V153.471Z" fill="white" stroke="white" stroke-width="10.3493"/>
<path d="M1121.45 134.274C1122.94 134.348 1124.39 134.929 1125.33 135.344C1125.68 135.48 1126.4 135.651 1127.66 135.651C1127.88 135.651 1128.12 135.629 1128.36 135.58C1129.32 135.386 1130.3 135.305 1131.27 135.305C1135.32 135.305 1139 137.216 1142.21 139.884C1145.56 142.457 1148.53 145.745 1151.16 149.649C1153.93 153.599 1156.23 158.058 1158.07 162.989C1160.04 167.828 1161.35 172.76 1161.98 177.779L1162.07 178.379C1162.25 179.641 1162.36 180.823 1162.38 181.879C1162.5 182.906 1162.56 183.934 1162.56 184.964C1162.56 188.28 1162.1 192.019 1161.27 196.13C1160.49 200.547 1159.06 204.772 1157.01 208.788L1157.01 208.787C1154.98 212.858 1152.2 216.394 1148.71 219.367L1148.71 219.373L1148.7 219.378C1144.73 222.737 1139.81 224.239 1134.36 224.239C1129.21 224.239 1124.37 222.781 1119.92 219.981L1119.87 219.95L1119.83 219.918C1115.66 217.164 1111.99 213.71 1108.8 209.599L1108.78 209.569L1108.75 209.538C1105.58 205.318 1103.05 200.664 1101.17 195.597L1101.14 195.526L1101.12 195.454C1099.35 190.231 1098.44 184.997 1098.44 179.772C1098.44 172.893 1098.85 166.875 1099.71 161.771L1099.72 161.722L1099.73 161.674C1100.5 157.602 1101.52 153.862 1102.8 150.483C1102.43 149.627 1102.26 148.741 1102.22 147.892L1102.22 147.577L1102.22 147.248C1102.31 145.628 1103.01 144.38 1103.51 143.651C1104.09 142.81 1104.8 142.081 1105.48 141.471L1105.58 141.381L1105.69 141.297C1107.11 140.151 1108.7 139.116 1110.42 138.181C1112.14 137.195 1113.86 136.361 1115.56 135.696C1117.21 134.988 1119.22 134.266 1121.13 134.266L1121.45 134.274ZM1122.22 153.471C1122.15 153.505 1121.96 153.63 1121.66 153.987C1120.83 155.144 1119.98 156.819 1119.21 159.154C1118.51 161.592 1117.93 164.463 1117.51 167.793C1117.08 171.154 1116.86 174.512 1116.86 177.868C1116.86 178.581 1117.1 180.595 1117.8 184.361C1118.4 187.467 1119.46 190.808 1121.02 194.394C1122.6 197.652 1124.66 200.558 1127.21 203.129C1129.13 205.064 1131.55 206.1 1134.88 206.1C1136.82 206.1 1137.99 205.568 1138.82 204.799C1140.19 203.407 1141.27 201.701 1142.05 199.603L1142.09 199.516L1142.12 199.431C1143.12 197.026 1143.81 194.589 1144.2 192.115C1144.63 189.281 1144.82 187.031 1144.82 185.311C1144.82 183.706 1144.47 181.041 1143.58 177.109L1143.57 177.093L1143.57 177.079C1142.74 173.302 1141.48 169.622 1139.81 166.037L1139.8 166.011L1139.79 165.985C1138.14 162.359 1136.17 159.281 1133.91 156.703L1133.87 156.66L1133.84 156.617C1132.06 154.503 1130.55 153.962 1129.21 153.962H1127.32L1126.81 153.861C1126.67 153.833 1126.35 153.79 1125.77 153.79H1125.4L1125.04 153.737C1124.44 153.651 1123.94 153.617 1123.54 153.617H1123.11L1122.68 153.545C1122.5 153.514 1122.34 153.49 1122.22 153.47V153.471Z" fill="white" stroke="white" stroke-width="10.3493"/>
<path d="M1080.76 117.83C1082.29 117.876 1084.02 118.283 1085.55 119.464C1087.21 120.741 1088.05 122.478 1088.42 124.095C1088.87 126.049 1089.11 128.592 1089.23 131.532C1089.35 133.363 1089.46 135.194 1089.57 137.025L1089.66 138.238C1089.76 139.447 1089.89 140.657 1090.05 141.867H1090.05L1093.45 166.991C1093.52 167.003 1093.6 167.013 1093.67 167.025C1094.86 167.146 1096.44 167.5 1097.85 168.588C1099.62 169.966 1100.41 171.959 1100.41 173.89C1100.41 176.478 1099.01 178.419 1097.29 179.551C1096.52 180.097 1095.71 180.513 1094.89 180.831L1095.54 185.225L1095.79 186.935C1096.38 190.892 1096.87 194.766 1097.28 198.556C1097.87 202.994 1098.17 207.237 1098.17 211.277C1098.17 214.667 1097.79 217.865 1096.95 220.825L1096.95 220.824C1096.54 222.4 1095.83 224.141 1094.49 225.56C1092.96 227.186 1090.92 228.05 1088.71 228.05C1085.97 228.05 1084.24 226.339 1083.42 225.268C1082.58 224.152 1082.01 222.833 1081.59 221.643L1081.53 221.478L1081.48 221.308C1080.86 219.054 1080.31 216.591 1079.83 213.928L1079.81 213.801L1079.79 213.673C1079.44 210.956 1079.15 208.293 1078.91 205.685L1078.9 205.563L1078.9 205.442C1078.78 202.784 1078.72 200.782 1078.72 199.507C1078.72 198.881 1078.67 197.756 1078.56 196.041L1078.56 196.02C1078.45 194.273 1078.29 192.462 1078.07 190.587L1078.07 190.571L1078.06 190.555C1077.87 188.828 1077.68 187.23 1077.49 185.76C1076.67 185.862 1075.78 185.978 1074.82 186.111L1074.73 186.124L1074.64 186.133C1072.55 186.351 1070.04 186.788 1067.1 187.458C1067.15 189.328 1067.25 191.366 1067.41 193.574L1067.75 198.176C1067.87 199.713 1067.98 201.278 1068.09 202.87C1068.44 206.011 1068.73 209.207 1068.96 212.456L1069.04 213.663C1069.22 216.468 1069.31 219.192 1069.31 221.836C1069.31 223.26 1069.18 224.801 1068.71 226.231L1068.71 226.23C1068.36 227.341 1067.68 228.605 1066.43 229.588C1065.07 230.652 1063.54 230.992 1062.25 230.992C1058.69 230.992 1056.05 229.003 1054.51 226.333L1054.42 226.189L1054.35 226.041C1053.41 224.148 1052.76 222.06 1052.35 219.841L1052.34 219.786C1051.98 217.711 1051.68 215.583 1051.44 213.402L1051.42 213.262L1051.41 213.12C1051.3 211.146 1051.2 209.516 1051.09 208.219C1050.63 205.132 1050.22 201.624 1049.88 197.708L1049.87 197.629L1049.87 197.55C1049.7 194.655 1049.54 191.731 1049.38 188.777C1049.34 188.759 1049.3 188.741 1049.27 188.724C1048.93 188.551 1048.58 188.377 1048.24 188.204L1047.95 188.059L1047.68 187.878C1046.78 187.275 1045.93 186.602 1045.18 185.843C1043.97 184.627 1043.1 182.982 1043 181.034L1042.99 180.64L1042.99 180.332C1043.09 177.211 1044.69 174.688 1047.15 173.069C1047.69 172.676 1048.25 172.306 1048.83 171.964C1048.83 171.913 1048.83 171.863 1048.83 171.812V140.751L1048.83 140.673C1048.94 136.918 1049 133.104 1049 129.231V128.911L1049.04 128.595C1049.2 127.34 1049.53 126.042 1049.97 124.743L1050.17 124.186C1050.56 123.032 1051.23 121.695 1052.41 120.596C1053.76 119.345 1055.46 118.69 1057.27 118.69L1057.74 118.705C1059.97 118.837 1061.82 119.899 1063.14 121.403C1064.25 122.571 1065.03 123.938 1065.55 125.35C1066.01 126.585 1066.32 127.865 1066.49 129.178C1066.74 130.268 1066.91 131.397 1066.91 132.521V168.462C1068.14 168.381 1069.4 168.298 1070.68 168.217C1072.27 168.017 1073.8 167.817 1075.29 167.618L1071.88 136.245C1071.77 135.438 1071.66 134.582 1071.54 133.677L1071.5 133.359V130.789C1071.5 128.131 1071.82 125.529 1072.76 123.272L1072.79 123.184L1072.83 123.095C1074.05 120.437 1076.52 117.825 1080.46 117.825L1080.76 117.83Z" fill="white" stroke="white" stroke-width="10.3493"/>
<path d="M996.303 135.142C998.553 135.242 1001 136.096 1002.68 138.349C1003.96 139.915 1004.8 141.87 1004.8 144.114V144.54L1004.73 144.958C1004.52 146.236 1003.89 147.459 1003.5 148.198C1003 149.125 1002.35 150.209 1001.57 151.419L1001.53 151.471L1001.5 151.522C999.999 153.73 998.442 155.996 996.829 158.318C996.548 158.738 996.129 159.341 995.599 160.089C995.598 160.091 995.597 160.092 995.596 160.093C995.595 160.095 995.593 160.097 995.592 160.098C995.591 160.1 995.59 160.101 995.589 160.103C995.588 160.105 995.586 160.106 995.585 160.108L995.579 160.118C995.578 160.119 995.576 160.12 995.575 160.122C995.574 160.123 995.573 160.125 995.572 160.126C995.571 160.128 995.569 160.13 995.568 160.131C995.567 160.133 995.567 160.135 995.565 160.136C995.564 160.138 995.563 160.14 995.562 160.141C995.56 160.143 995.56 160.144 995.559 160.146C995.558 160.148 995.556 160.149 995.555 160.151C995.554 160.152 995.553 160.153 995.552 160.155C995.551 160.156 995.55 160.158 995.549 160.16C995.548 160.161 995.546 160.163 995.545 160.165C995.544 160.166 995.543 160.168 995.542 160.169C995.541 160.171 995.539 160.173 995.538 160.174C995.537 160.176 995.536 160.178 995.535 160.179C995.534 160.181 995.532 160.182 995.531 160.183L995.525 160.193C995.524 160.194 995.523 160.196 995.521 160.198C995.52 160.199 995.52 160.201 995.519 160.203C995.517 160.204 995.516 160.206 995.515 160.208C995.514 160.209 995.513 160.211 995.512 160.212C995.511 160.214 995.509 160.215 995.508 160.216C995.507 160.218 995.506 160.22 995.505 160.221C995.504 160.223 995.502 160.224 995.501 160.226L995.495 160.236C995.494 160.237 995.492 160.239 995.491 160.241C995.49 160.242 995.489 160.243 995.488 160.245C995.487 160.246 995.485 160.248 995.484 160.25C995.483 160.251 995.483 160.253 995.481 160.254C995.48 160.256 995.479 160.258 995.478 160.259L995.472 160.269C995.471 160.271 995.469 160.272 995.468 160.274C995.467 160.275 995.466 160.277 995.465 160.278C995.464 160.279 995.462 160.281 995.461 160.283C995.46 160.284 995.459 160.286 995.458 160.288C995.457 160.289 995.455 160.291 995.454 160.292L995.448 160.302C995.447 160.304 995.445 160.305 995.444 160.306C995.443 160.308 995.442 160.31 995.441 160.311C995.44 160.313 995.439 160.314 995.438 160.316C995.436 160.317 995.436 160.319 995.435 160.321C995.433 160.322 995.432 160.324 995.431 160.326C995.43 160.327 995.429 160.329 995.428 160.331C995.427 160.332 995.425 160.334 995.424 160.335C995.423 160.337 995.422 160.338 995.421 160.339C995.42 160.341 995.419 160.343 995.418 160.344C995.417 160.346 995.415 160.348 995.414 160.349C995.413 160.351 995.412 160.352 995.411 160.354C995.41 160.356 995.408 160.357 995.407 160.359C995.406 160.36 995.405 160.362 995.404 160.364C995.403 160.365 995.401 160.366 995.4 160.368L995.395 160.377C995.393 160.379 995.392 160.381 995.391 160.382C995.39 160.384 995.389 160.386 995.388 160.387C995.387 160.389 995.385 160.391 995.384 160.392C995.383 160.394 995.382 160.395 995.381 160.397C995.38 160.398 995.378 160.399 995.377 160.401C995.376 160.402 995.375 160.404 995.374 160.406C995.373 160.407 995.371 160.409 995.37 160.411L995.364 160.42C995.363 160.422 995.361 160.424 995.36 160.425C995.359 160.427 995.358 160.429 995.357 160.43C995.356 160.432 995.355 160.433 995.354 160.434C995.352 160.436 995.352 160.437 995.351 160.439C995.349 160.441 995.348 160.442 995.347 160.444L995.341 160.454C995.34 160.455 995.338 160.457 995.337 160.458C995.336 160.46 995.335 160.461 995.334 160.462C995.333 160.464 995.331 160.466 995.33 160.467C995.329 160.469 995.328 160.471 995.327 160.472C995.326 160.474 995.324 160.475 995.323 160.477L995.317 160.487C995.316 160.488 995.315 160.49 995.313 160.492C995.313 160.493 995.311 160.494 995.311 160.496C995.309 160.497 995.308 160.499 995.307 160.5C995.306 160.502 995.305 160.504 995.304 160.505C995.303 160.507 995.301 160.509 995.3 160.51C995.299 160.512 995.298 160.514 995.297 160.515C995.296 160.517 995.294 160.518 995.293 160.52C995.292 160.521 995.291 160.523 995.29 160.524C995.289 160.525 995.288 160.527 995.287 160.529C995.286 160.53 995.284 160.532 995.283 160.534C995.282 160.535 995.281 160.537 995.28 160.539C995.279 160.54 995.277 160.542 995.276 160.543C995.275 160.545 995.274 160.547 995.273 160.548C995.272 160.55 995.271 160.552 995.27 160.553C995.269 160.555 995.268 160.556 995.267 160.557C995.266 160.559 995.265 160.561 995.264 160.562C995.263 160.564 995.261 160.565 995.26 160.567C995.259 160.568 995.258 160.57 995.257 160.572C995.256 160.573 995.254 160.575 995.253 160.577C995.252 160.578 995.251 160.58 995.25 160.582C995.249 160.583 995.247 160.584 995.246 160.585C995.245 160.587 995.244 160.589 995.243 160.59C995.242 160.592 995.24 160.594 995.239 160.595L995.233 160.605C995.232 160.607 995.231 160.608 995.229 160.61C995.228 160.611 995.228 160.613 995.227 160.615C995.226 160.616 995.224 160.617 995.223 160.619C995.222 160.62 995.221 160.622 995.22 160.624C995.219 160.625 995.217 160.627 995.216 160.628L995.21 160.638C995.209 160.64 995.207 160.641 995.206 160.643C995.205 160.644 995.204 160.646 995.203 160.647C995.202 160.649 995.2 160.65 995.199 160.652C995.198 160.653 995.197 160.655 995.196 160.657C995.195 160.658 995.194 160.66 995.192 160.662L995.187 160.671C995.185 160.673 995.184 160.675 995.183 160.676C995.182 160.678 995.181 160.679 995.18 160.68C995.179 160.682 995.177 160.683 995.176 160.685C995.175 160.687 995.174 160.688 995.173 160.69C995.172 160.692 995.17 160.693 995.169 160.695C995.168 160.696 995.167 160.698 995.166 160.7C995.165 160.701 995.163 160.703 995.162 160.705C995.161 160.706 995.16 160.707 995.159 160.708C995.158 160.71 995.157 160.712 995.156 160.713C995.155 160.715 995.153 160.717 995.152 160.718C995.151 160.72 995.151 160.722 995.149 160.723C995.148 160.725 995.147 160.726 995.146 160.728C995.144 160.73 995.144 160.731 995.143 160.733C995.141 160.734 995.14 160.736 995.139 160.738C995.138 160.739 995.137 160.74 995.136 160.742C995.135 160.743 995.134 160.745 995.133 160.747C995.132 160.748 995.13 160.75 995.129 160.751C995.128 160.753 995.127 160.755 995.126 160.756C995.125 160.758 995.123 160.76 995.122 160.761C995.121 160.763 995.12 160.765 995.119 160.766C995.118 160.768 995.116 160.769 995.115 160.77C995.114 160.772 995.113 160.773 995.112 160.775C995.111 160.776 995.11 160.778 995.108 160.78L995.103 160.79C995.101 160.791 995.1 160.793 995.099 160.794C995.098 160.796 995.097 160.798 995.096 160.799C995.095 160.801 995.093 160.802 995.092 160.803C995.091 160.805 995.09 160.807 995.089 160.808C995.088 160.81 995.086 160.811 995.085 160.813L995.079 160.823C995.078 160.824 995.076 160.826 995.075 160.828C995.074 160.829 995.073 160.83 995.072 160.832C995.071 160.833 995.069 160.835 995.068 160.836C995.067 160.838 995.067 160.84 995.065 160.841C995.064 160.843 995.063 160.845 995.062 160.846L995.056 160.856C995.055 160.858 995.053 160.859 995.052 160.861C995.051 160.862 995.05 160.863 995.049 160.865C995.048 160.866 995.046 160.868 995.045 160.87C995.044 160.871 995.043 160.873 995.042 160.875C995.041 160.876 995.039 160.878 995.038 160.879C995.037 160.881 995.036 160.883 995.035 160.884C995.034 160.886 995.032 160.888 995.031 160.889C995.03 160.89 995.029 160.892 995.028 160.893C995.027 160.895 995.026 160.897 995.025 160.898C995.024 160.9 995.023 160.901 995.021 160.903C995.02 160.904 995.02 160.906 995.019 160.908C995.017 160.909 995.016 160.911 995.015 160.913C995.014 160.914 995.013 160.916 995.012 160.917C995.011 160.919 995.009 160.921 995.008 160.922C995.007 160.924 995.006 160.925 995.005 160.926C995.004 160.928 995.003 160.93 995.002 160.931C995.001 160.933 994.999 160.934 994.998 160.936C994.997 160.938 994.996 160.939 994.995 160.941C994.994 160.942 994.992 160.944 994.991 160.946C994.99 160.947 994.989 160.949 994.988 160.951C994.987 160.952 994.985 160.953 994.984 160.955C994.983 160.956 994.983 160.958 994.981 160.959C994.98 160.961 994.979 160.963 994.978 160.964L994.972 160.974C994.971 160.976 994.969 160.977 994.968 160.979C994.967 160.98 994.966 160.982 994.965 160.984C994.964 160.985 994.962 160.986 994.961 160.988C994.96 160.989 994.959 160.991 994.958 160.993C994.957 160.994 994.955 160.996 994.954 160.998L994.948 161.007C994.947 161.009 994.945 161.011 994.944 161.012C994.943 161.014 994.942 161.015 994.941 161.016C994.94 161.018 994.939 161.019 994.938 161.021C994.936 161.023 994.936 161.024 994.935 161.026C994.933 161.027 994.932 161.029 994.931 161.031L994.925 161.041C994.924 161.042 994.922 161.044 994.921 161.045C994.92 161.047 994.919 161.048 994.918 161.049C994.917 161.051 994.915 161.053 994.914 161.054C994.913 161.056 994.912 161.058 994.911 161.059C994.91 161.061 994.908 161.062 994.907 161.064C994.906 161.065 994.905 161.067 994.904 161.069C994.903 161.07 994.901 161.072 994.9 161.074C994.899 161.075 994.898 161.076 994.897 161.078C994.896 161.079 994.896 161.081 994.895 161.083C994.893 161.084 994.892 161.086 994.891 161.087C994.89 161.089 994.889 161.091 994.888 161.092C994.887 161.094 994.885 161.096 994.884 161.097C994.883 161.099 994.882 161.101 994.881 161.102C994.88 161.104 994.878 161.105 994.877 161.107C994.876 161.108 994.875 161.11 994.874 161.111C994.873 161.112 994.872 161.114 994.871 161.116C994.87 161.117 994.868 161.119 994.867 161.121C994.866 161.122 994.865 161.124 994.864 161.125C994.863 161.127 994.861 161.129 994.86 161.13C994.859 161.132 994.858 161.134 994.857 161.135C994.856 161.137 994.855 161.138 994.854 161.139C994.852 161.141 994.852 161.143 994.851 161.144C994.849 161.146 994.848 161.147 994.847 161.149L994.841 161.159C994.84 161.16 994.838 161.162 994.837 161.164C994.836 161.165 994.835 161.167 994.834 161.168C994.833 161.17 994.831 161.171 994.83 161.172C994.829 161.174 994.828 161.176 994.827 161.177C994.826 161.179 994.824 161.181 994.823 161.182L994.817 161.192C994.816 161.193 994.815 161.195 994.813 161.197C994.812 161.198 994.812 161.2 994.811 161.202C994.809 161.203 994.808 161.204 994.807 161.206C994.806 161.207 994.805 161.209 994.804 161.21C994.803 161.212 994.801 161.214 994.8 161.215L994.794 161.225C994.793 161.227 994.791 161.228 994.79 161.23C994.789 161.231 994.788 161.233 994.787 161.234C994.786 161.235 994.784 161.237 994.783 161.239C994.782 161.24 994.781 161.242 994.78 161.244C994.779 161.245 994.777 161.247 994.776 161.249C994.775 161.25 994.775 161.252 994.773 161.253C994.772 161.255 994.771 161.257 994.77 161.258C994.769 161.26 994.768 161.262 994.767 161.263C994.766 161.265 994.765 161.266 994.764 161.267C994.763 161.269 994.761 161.27 994.76 161.272C994.759 161.273 994.758 161.275 994.757 161.277C994.756 161.278 994.754 161.28 994.753 161.282C994.752 161.283 994.751 161.285 994.75 161.287C994.749 161.288 994.747 161.29 994.746 161.292C994.745 161.293 994.744 161.294 994.743 161.295C994.742 161.297 994.741 161.299 994.74 161.3C994.739 161.302 994.737 161.304 994.736 161.305C994.735 161.307 994.734 161.309 994.733 161.31C994.732 161.312 994.731 161.313 994.729 161.315C994.728 161.316 994.728 161.318 994.727 161.32C994.725 161.321 994.724 161.323 994.723 161.325C994.722 161.326 994.721 161.327 994.72 161.329C994.719 161.33 994.717 161.332 994.716 161.333L994.71 161.343C994.709 161.345 994.707 161.347 994.706 161.348C994.705 161.35 994.704 161.352 994.703 161.353C994.702 161.355 994.7 161.355 994.699 161.357C994.698 161.358 994.697 161.36 994.696 161.362C994.695 161.363 994.694 161.365 994.692 161.367L994.687 161.376C994.685 161.378 994.684 161.38 994.683 161.381C994.682 161.383 994.681 161.385 994.68 161.386C994.679 161.388 994.677 161.389 994.676 161.39C994.675 161.392 994.674 161.394 994.673 161.395C994.672 161.397 994.67 161.398 994.669 161.4L994.663 161.41C994.662 161.411 994.66 161.413 994.659 161.415C994.658 161.416 994.657 161.417 994.656 161.418C994.655 161.42 994.653 161.422 994.652 161.423C994.651 161.425 994.65 161.427 994.649 161.428C994.648 161.43 994.647 161.432 994.646 161.433C994.644 161.435 994.644 161.436 994.643 161.438C994.641 161.44 994.64 161.441 994.639 161.443C994.638 161.444 994.637 161.446 994.636 161.448C994.635 161.449 994.634 161.45 994.633 161.452C994.632 161.453 994.63 161.455 994.629 161.457C994.628 161.458 994.627 161.46 994.626 161.461C994.625 161.463 994.623 161.465 994.622 161.466C994.621 161.468 994.62 161.47 994.619 161.471C994.618 161.473 994.616 161.475 994.615 161.476C994.614 161.477 994.613 161.479 994.612 161.48C994.611 161.481 994.61 161.483 994.609 161.485C994.608 161.486 994.607 161.488 994.605 161.49C994.604 161.491 994.604 161.493 994.603 161.495C994.601 161.496 994.6 161.498 994.599 161.5C994.598 161.501 994.597 161.503 994.596 161.504C994.595 161.506 994.593 161.508 994.592 161.509C994.591 161.511 994.59 161.512 994.589 161.513C994.588 161.515 994.586 161.516 994.585 161.518L994.579 161.528C994.578 161.529 994.576 161.531 994.575 161.533C994.574 161.534 994.573 161.536 994.572 161.538C994.571 161.539 994.569 161.54 994.568 161.542C994.567 161.543 994.566 161.545 994.565 161.546C994.564 161.548 994.563 161.55 994.562 161.551L994.556 161.561C994.555 161.563 994.553 161.564 994.552 161.566C994.551 161.567 994.55 161.569 994.549 161.571C994.548 161.572 994.546 161.573 994.545 161.575C994.544 161.576 994.543 161.578 994.542 161.58C994.541 161.581 994.539 161.583 994.538 161.584L994.532 161.594C994.531 161.596 994.529 161.598 994.528 161.599C994.527 161.6 994.526 161.602 994.525 161.603C994.524 161.605 994.523 161.606 994.521 161.608C994.52 161.609 994.52 161.611 994.519 161.613C994.517 161.614 994.516 161.616 994.515 161.618C994.514 161.619 994.513 161.621 994.512 161.623C994.511 161.624 994.509 161.626 994.508 161.627C994.507 161.629 994.506 161.631 994.505 161.632C994.504 161.634 994.503 161.635 994.502 161.636C994.501 161.638 994.499 161.64 994.498 161.641C994.497 161.643 994.496 161.644 994.495 161.646C994.494 161.648 994.492 161.649 994.491 161.651C994.49 161.652 994.489 161.654 994.488 161.656C994.487 161.657 994.485 161.659 994.484 161.661C994.483 161.662 994.482 161.663 994.481 161.665C994.48 161.666 994.48 161.668 994.479 161.669C994.477 161.671 994.476 161.673 994.475 161.674C994.474 161.676 994.473 161.678 994.472 161.679C994.471 161.681 994.469 161.683 994.468 161.684C994.467 161.686 994.466 161.687 994.465 161.689C994.464 161.691 994.462 161.692 994.461 161.694C994.46 161.695 994.459 161.696 994.458 161.698C994.457 161.699 994.455 161.701 994.454 161.703L994.448 161.712C994.447 161.714 994.445 161.716 994.444 161.717C994.443 161.719 994.442 161.721 994.441 161.722C994.44 161.724 994.439 161.725 994.438 161.726C994.436 161.728 994.436 161.729 994.435 161.731C994.433 161.733 994.432 161.734 994.431 161.736L994.425 161.746C994.424 161.747 994.422 161.749 994.421 161.75C994.42 161.752 994.419 161.754 994.418 161.755C994.417 161.757 994.415 161.758 994.414 161.759C994.413 161.761 994.412 161.763 994.411 161.764C994.41 161.766 994.408 161.767 994.407 161.769L994.401 161.779C994.4 161.78 994.399 161.782 994.397 161.784C994.397 161.785 994.395 161.786 994.395 161.788C994.393 161.789 994.392 161.791 994.391 161.792C994.39 161.794 994.389 161.796 994.388 161.797C994.387 161.799 994.385 161.801 994.384 161.802C994.383 161.804 994.382 161.806 994.381 161.807C994.38 161.809 994.378 161.81 994.377 161.812C994.376 161.813 994.375 161.815 994.374 161.817C994.373 161.818 994.372 161.819 994.371 161.821C994.37 161.822 994.368 161.824 994.367 161.826C994.366 161.827 994.365 161.829 994.364 161.831C994.363 161.832 994.361 161.834 994.36 161.835C994.359 161.837 994.359 161.839 994.357 161.84C994.356 161.842 994.355 161.844 994.354 161.845C994.353 161.847 994.352 161.848 994.351 161.849C994.35 161.851 994.349 161.853 994.348 161.854C994.347 161.856 994.345 161.857 994.344 161.859C994.343 161.86 994.342 161.862 994.341 161.864C994.34 161.865 994.338 161.867 994.337 161.869C994.336 161.87 994.335 161.872 994.334 161.874C994.333 161.875 994.331 161.877 994.33 161.878C994.329 161.88 994.328 161.881 994.327 161.882C994.326 161.884 994.324 161.886 994.323 161.887L994.317 161.897C994.316 161.899 994.315 161.9 994.313 161.902C994.312 161.903 994.312 161.905 994.311 161.907C994.309 161.908 994.308 161.909 994.307 161.911C994.306 161.912 994.305 161.914 994.304 161.916C994.303 161.917 994.301 161.919 994.3 161.92L994.294 161.93C994.293 161.932 994.291 161.933 994.29 161.935C994.289 161.937 994.288 161.938 994.287 161.94C994.286 161.941 994.284 161.942 994.283 161.944C994.282 161.945 994.281 161.947 994.28 161.949C994.279 161.95 994.277 161.952 994.276 161.954L994.271 161.963C994.269 161.965 994.268 161.967 994.267 161.968C994.266 161.97 994.265 161.972 994.264 161.973C994.263 161.975 994.261 161.976 994.26 161.977C994.259 161.979 994.258 161.98 994.257 161.982C994.256 161.984 994.254 161.985 994.253 161.987C994.252 161.988 994.251 161.99 994.25 161.992C994.249 161.993 994.247 161.995 994.246 161.997C994.245 161.998 994.244 162 994.243 162.001C994.242 162.003 994.241 162.004 994.24 162.005C994.239 162.007 994.237 162.009 994.236 162.01C994.235 162.012 994.234 162.014 994.233 162.015C994.232 162.017 994.231 162.018 994.229 162.02C994.228 162.022 994.228 162.023 994.227 162.025C994.225 162.026 994.224 162.028 994.223 162.03C994.222 162.031 994.221 162.033 994.22 162.035C994.219 162.036 994.218 162.037 994.217 162.039C994.216 162.04 994.214 162.042 994.213 162.043C994.212 162.045 994.211 162.047 994.21 162.048C994.209 162.05 994.207 162.052 994.206 162.053C994.205 162.055 994.204 162.057 994.203 162.058C994.202 162.06 994.2 162.061 994.199 162.063C994.198 162.064 994.197 162.066 994.196 162.067C994.195 162.068 994.194 162.07 994.192 162.072L994.187 162.082C994.185 162.083 994.184 162.085 994.183 162.086C994.182 162.088 994.181 162.09 994.18 162.091C994.179 162.093 994.177 162.095 994.176 162.096C994.175 162.098 994.174 162.099 994.173 162.1C994.172 162.102 994.17 162.103 994.169 162.105L994.163 162.115C994.162 162.116 994.16 162.118 994.159 162.12C994.158 162.121 994.157 162.123 994.156 162.125C994.155 162.126 994.153 162.127 994.152 162.128C994.151 162.13 994.15 162.132 994.149 162.133C994.148 162.135 994.147 162.137 994.146 162.138L994.14 162.148C994.139 162.15 994.137 162.151 994.136 162.153C994.135 162.154 994.134 162.156 994.133 162.158C994.132 162.159 994.13 162.16 994.129 162.162C994.128 162.163 994.127 162.165 994.126 162.167C994.125 162.168 994.123 162.17 994.122 162.171C994.121 162.173 994.12 162.175 994.119 162.176C994.118 162.178 994.116 162.18 994.115 162.181C994.114 162.183 994.113 162.185 994.112 162.186C994.111 162.187 994.11 162.189 994.109 162.19C994.108 162.191 994.107 162.193 994.105 162.195C994.104 162.196 994.104 162.198 994.103 162.2C994.101 162.201 994.1 162.203 994.099 162.205C994.098 162.206 994.097 162.208 994.096 162.209C994.095 162.211 994.093 162.213 994.092 162.214C994.091 162.216 994.09 162.218 994.089 162.219C994.088 162.221 994.087 162.222 994.086 162.223C994.085 162.225 994.083 162.226 994.082 162.228C994.081 162.23 994.08 162.231 994.079 162.233C994.078 162.234 994.076 162.236 994.075 162.238C994.074 162.239 994.073 162.241 994.072 162.243C994.071 162.244 994.069 162.246 994.068 162.248C994.067 162.249 994.066 162.25 994.065 162.251C994.064 162.253 994.063 162.255 994.062 162.256L994.056 162.266C994.055 162.268 994.053 162.269 994.052 162.271C994.051 162.273 994.05 162.274 994.049 162.276C994.048 162.277 994.046 162.279 994.045 162.281C994.044 162.282 994.043 162.283 994.042 162.285C994.041 162.286 994.039 162.288 994.038 162.29L994.032 162.299C994.031 162.301 994.029 162.303 994.028 162.304C994.027 162.306 994.026 162.308 994.025 162.309C994.024 162.311 994.023 162.312 994.021 162.313C994.02 162.314 994.02 162.316 994.019 162.318C994.017 162.319 994.016 162.321 994.015 162.323L994.009 162.333C994.008 162.334 994.006 162.336 994.005 162.337C994.004 162.339 994.003 162.341 994.002 162.342C994.001 162.344 993.999 162.345 993.998 162.346C993.997 162.348 993.996 162.35 993.995 162.351C993.994 162.353 993.992 162.354 993.991 162.356C993.99 162.358 993.989 162.359 993.988 162.361C993.987 162.362 993.985 162.364 993.984 162.366C993.983 162.367 993.982 162.369 993.981 162.371C993.981 162.372 993.979 162.373 993.979 162.375C993.977 162.376 993.976 162.378 993.975 162.379C993.974 162.381 993.973 162.383 993.972 162.384C993.971 162.386 993.969 162.388 993.968 162.389C993.967 162.391 993.966 162.393 993.965 162.394C993.964 162.396 993.962 162.397 993.961 162.399C993.96 162.4 993.959 162.402 993.958 162.404C993.957 162.405 993.956 162.406 993.955 162.408C993.954 162.409 993.952 162.411 993.951 162.413C993.95 162.414 993.949 162.416 993.948 162.417C993.947 162.419 993.945 162.421 993.944 162.422C993.943 162.424 993.942 162.426 993.941 162.427C993.94 162.429 993.939 162.431 993.938 162.432C993.937 162.433 993.936 162.435 993.935 162.436C993.933 162.438 993.932 162.439 993.931 162.441L993.925 162.451C993.924 162.452 993.922 162.454 993.921 162.456C993.92 162.457 993.919 162.459 993.918 162.46C993.917 162.462 993.915 162.464 993.914 162.465C993.913 162.467 993.912 162.468 993.911 162.469C993.91 162.471 993.908 162.473 993.907 162.474L993.901 162.484C993.9 162.485 993.899 162.487 993.897 162.489C993.896 162.49 993.896 162.492 993.895 162.494C993.893 162.495 993.892 162.496 993.891 162.498C993.89 162.499 993.889 162.501 993.888 162.502C993.887 162.504 993.885 162.506 993.884 162.507C993.883 162.509 993.882 162.511 993.881 162.512L993.846 162.561L993.811 162.609C993.223 163.398 992.629 164.242 992.03 165.141C991.636 165.863 990.714 167.711 989.193 170.884C987.761 173.995 986.201 177.698 984.514 182.005L984.505 182.027L984.496 182.049C982.847 186.148 981.356 190.485 980.026 195.062L980.017 195.095C978.734 199.404 978.17 202.927 978.17 205.736C978.17 206.742 978.331 207.214 978.408 207.381C978.833 207.877 979.218 208.168 979.547 208.345C980.325 208.694 981.065 208.933 981.771 209.081C982.926 209.172 983.89 209.215 984.678 209.215C988.142 209.215 991.948 208.463 996.133 206.824C1000.55 205.02 1004.78 202.683 1008.81 199.797C1012.84 196.91 1016.56 193.592 1019.97 189.837C1023.36 186.003 1025.93 182.142 1027.75 178.262L1027.84 178.083L1027.93 177.911C1028.54 176.838 1029.63 175.217 1031.48 174.285L1031.68 174.187L1031.88 174.107C1032.86 173.709 1034.05 173.385 1035.36 173.385L1035.7 173.393C1039.25 173.554 1041.31 176.156 1042.31 178C1043.13 179.517 1043.97 181.475 1043.97 183.58C1043.97 186.156 1043.24 188.615 1042.05 190.902C1041.1 192.928 1039.91 194.907 1038.51 196.837C1037.13 198.733 1035.63 200.561 1034.01 202.319L1033.94 202.389L1033.88 202.457C1032.34 204.002 1030.91 205.388 1029.58 206.609L1029.53 206.648C1026.34 209.508 1023.03 212.247 1019.6 214.867L1019.59 214.875L1019.58 214.883C1016.19 217.442 1012.63 219.755 1008.89 221.826L1008.89 221.827C1005.12 223.978 1001.16 225.689 997.012 226.956C992.722 228.265 988.259 228.912 983.646 228.912C976.561 228.912 970.307 227.068 965.881 222.486C961.487 217.937 959.746 211.567 959.746 204.351C959.746 202.253 960.487 199.086 961.483 195.516C962.546 191.711 963.892 187.406 965.518 182.611C967.164 177.752 969.098 172.677 971.315 167.386C973.545 162.065 975.848 157.182 978.228 152.746C980.603 148.204 982.994 144.349 985.419 141.263L985.459 141.212L985.5 141.163C988.001 138.139 991.454 135.131 995.844 135.131L996.303 135.142Z" fill="white" stroke="white" stroke-width="10.3493"/>
<path d="M946.194 128.036C949.173 128.036 952.794 128.847 954.999 132.036L955.208 132.351L955.483 132.812C956.799 135.142 957.211 137.855 957.211 140.48C957.211 142.843 956.935 145.277 956.414 147.77C955.935 150.065 955.394 152.306 954.791 154.492C954.204 156.619 953.607 158.554 952.996 160.287C952.572 161.671 952.127 163.015 951.689 163.898C951.058 165.272 950.01 167 948.185 168.103C947.791 168.341 947.327 168.6 946.829 168.815C946.462 168.974 945.507 169.369 944.305 169.369C942.92 169.369 941.069 168.873 939.737 167.196C938.586 165.746 938.443 164.163 938.443 163.329C938.443 162.619 938.543 161.684 938.654 160.788L938.685 160.547L938.736 160.31C938.941 159.384 939.153 158.266 939.371 156.945L939.405 156.743L939.454 156.543C939.717 155.483 939.906 154.281 940.002 152.923L940.016 152.743L940.041 152.563C940.236 151.186 940.333 149.813 940.333 148.443C940.333 147.772 940.324 147.18 940.309 146.66C939.562 146.833 938.643 147.09 937.534 147.462L937.441 147.495L937.346 147.522C934.834 148.26 932.241 149.218 929.566 150.404C926.861 151.617 924.164 153.199 921.478 155.172C918.794 157.23 916.406 159.319 914.306 161.435C912.2 163.557 910.531 165.556 909.259 167.426C908.802 168.119 908.503 168.667 908.312 169.078C908.354 169.11 908.398 169.143 908.445 169.177C909.948 170.048 911.915 170.91 914.421 171.72C917.19 172.578 920.263 173.341 923.649 174.001C926.626 174.582 929.552 175.033 932.428 175.358L933.657 175.49L933.708 175.495L933.76 175.5C936.716 175.858 939.946 176.332 943.444 176.919C947.252 177.559 950.856 178.591 954.236 180.032C957.777 181.541 960.87 183.637 963.438 186.339C966.602 189.527 968.033 193.621 968.033 198.121C968.033 203.84 967.037 208.996 964.526 213.107L964.503 213.146L964.479 213.185C962.206 216.763 958.993 219.932 955.046 222.754L954.922 222.843L954.793 222.924C953.677 223.627 952.253 224.403 950.585 225.244C948.763 226.162 946.785 226.994 944.664 227.749C942.486 228.523 940.203 229.16 937.82 229.666C935.363 230.187 932.994 230.471 930.733 230.471C925.369 230.471 920.64 229.895 917.029 228.328C914.243 227.208 909.926 224.757 909.926 219.757C909.926 217.104 910.707 214.491 912.594 212.353C913.639 211.169 915.463 209.372 918.022 208.942L920.177 208.581L921.938 209.871L923.828 211.255L924.155 211.496L924.442 211.785C924.652 211.996 925.055 212.336 925.729 212.808C925.803 212.828 925.917 212.856 926.078 212.884C926.533 212.963 927.21 213.025 928.156 213.025C929.806 213.025 932.01 212.759 934.842 212.129C937.482 211.432 939.962 210.45 942.292 209.183C944.659 207.845 946.568 206.27 948.081 204.477L948.128 204.421L948.177 204.367C949.42 202.974 949.953 201.536 949.953 199.851C949.953 199.847 949.953 199.847 949.953 199.847C949.953 199.845 949.95 199.831 949.939 199.804C949.917 199.747 949.843 199.59 949.638 199.341C949.198 198.809 948.299 198.033 946.632 197.122L946.554 197.079L946.477 197.033C943.59 195.322 938.34 193.847 930.07 193.059H930.069C925.606 192.702 921.197 192.169 916.843 191.458L916.775 191.446L916.708 191.433C912.238 190.581 908.119 189.472 904.373 188.088L904.273 188.051L904.176 188.01C900.419 186.444 897.148 184.459 894.525 181.963L894.472 181.913L894.42 181.86C891.37 178.786 889.825 174.926 889.825 170.598C889.825 166.7 890.923 163.013 892.976 159.615C894.82 156.562 897.056 153.782 899.668 151.282C902.256 148.798 904.934 146.599 907.703 144.697C910.231 142.96 912.366 141.507 914.104 140.339L914.233 140.252L914.368 140.173C915.841 139.308 917.81 138.227 920.243 136.943C922.875 135.5 925.616 134.18 928.464 132.981C931.497 131.637 934.498 130.523 937.465 129.648C940.567 128.653 943.519 128.036 946.194 128.036Z" fill="white" stroke="white" stroke-width="10.3493"/>
<path d="M914.974 160.182C910.174 164.182 914.307 171.182 916.974 174.182L922.474 188.682H1147.97C1148.77 188.682 1152.64 178.015 1154.47 172.682L1143.97 153.682C1143.97 153.682 1137.5 141 1123.5 137.5C1109.5 134 1095.5 128.5 1092 119C1088.5 109.5 1082.97 152.182 1082.97 152.182L1054.47 148.182C1059.5 162.5 1021.5 184 1008 136.5C1005.16 126.492 967.974 168.682 956.474 171.682C944.974 174.682 930.974 160.182 928.974 156.182C926.974 152.182 920.974 155.182 914.974 160.182Z" fill="white"/>
<path d="M1279.97 210.064C1279.97 210.872 1279.63 211.507 1278.94 211.968C1277.91 212.66 1276.14 213.641 1273.62 214.911C1271.1 216.18 1268.29 217.507 1265.2 218.892C1262.22 220.277 1259.07 221.719 1255.75 223.219C1252.43 224.719 1249.39 226.046 1246.65 227.2C1243.9 228.354 1241.55 229.277 1239.6 229.97C1237.77 230.778 1236.8 231.181 1236.68 231.181C1235.76 231.181 1234.73 230.143 1233.59 228.066C1232.56 225.989 1231.53 223.219 1230.5 219.757C1229.47 216.18 1228.49 212.084 1227.58 207.468C1226.66 202.736 1225.8 197.774 1225 192.582C1224.31 187.389 1223.74 182.138 1223.28 176.83C1222.94 171.407 1222.77 166.214 1222.77 161.252C1222.77 153.866 1223.11 148.097 1223.8 143.942C1224.6 139.788 1225.46 136.673 1226.37 134.595C1227.4 132.518 1228.32 131.249 1229.12 130.787C1229.92 130.21 1230.38 129.922 1230.5 129.922C1231.41 129.922 1232.16 130.326 1232.73 131.134C1233.3 131.941 1233.59 132.749 1233.59 133.557C1233.59 134.018 1233.36 134.826 1232.9 135.98C1232.44 137.134 1231.93 138.75 1231.36 140.827C1230.9 142.904 1230.44 145.558 1229.98 148.789C1229.64 152.02 1229.47 155.944 1229.47 160.559C1229.47 164.714 1229.64 169.041 1229.98 173.541C1230.44 178.042 1231.01 182.485 1231.7 186.87C1232.39 191.255 1233.13 195.409 1233.93 199.332C1234.85 203.256 1235.76 206.718 1236.68 209.718C1237.6 212.718 1238.46 215.142 1239.26 216.988C1240.06 218.719 1240.8 219.584 1241.49 219.584C1241.61 219.584 1242.35 219.296 1243.72 218.719C1245.1 218.142 1246.82 217.449 1248.88 216.642C1250.94 215.718 1253.17 214.853 1255.58 214.045C1258.1 213.122 1260.62 212.314 1263.14 211.622C1264.28 211.276 1265.6 210.93 1267.09 210.583C1268.69 210.122 1270.18 209.718 1271.56 209.372C1272.93 209.026 1274.13 208.737 1275.16 208.506C1276.31 208.275 1277 208.16 1277.22 208.16C1279.06 208.16 1279.97 208.795 1279.97 210.064Z" fill="#0D0D0D"/>
<path d="M1217.57 178.56C1217.8 180.06 1217.92 181.272 1217.92 182.195C1218.03 183.118 1218.09 184.041 1218.09 184.964C1218.09 187.849 1217.69 191.254 1216.88 195.177C1216.2 199.1 1214.94 202.851 1213.11 206.428C1211.39 209.89 1209.04 212.89 1206.06 215.429C1203.2 217.852 1199.53 219.064 1195.07 219.064C1190.94 219.064 1187.05 217.91 1183.38 215.602C1179.72 213.179 1176.46 210.121 1173.59 206.428C1170.73 202.62 1168.44 198.408 1166.72 193.792C1165.12 189.061 1164.32 184.388 1164.32 179.772C1164.32 173.079 1164.72 167.367 1165.52 162.635C1166.43 157.789 1167.69 153.577 1169.3 150C1169.3 149.653 1169.07 149.307 1168.61 148.961C1168.27 148.615 1168.09 148.153 1168.09 147.576C1168.09 146.999 1168.61 146.249 1169.64 145.326C1170.79 144.403 1172.1 143.537 1173.59 142.73C1175.2 141.807 1176.74 141.056 1178.23 140.479C1179.83 139.787 1181.04 139.441 1181.84 139.441C1182.3 139.441 1183.04 139.672 1184.07 140.133C1185.22 140.595 1186.65 140.826 1188.37 140.826C1188.94 140.826 1189.51 140.768 1190.08 140.653C1190.66 140.537 1191.29 140.479 1191.97 140.479C1194.38 140.479 1196.96 141.633 1199.71 143.941C1202.57 146.134 1205.2 149.019 1207.61 152.596C1210.13 156.173 1212.25 160.27 1213.96 164.886C1215.8 169.386 1217 173.944 1217.57 178.56ZM1210.7 185.311C1210.7 183.118 1210.24 180.002 1209.33 175.964C1208.41 171.809 1207.04 167.771 1205.2 163.847C1203.37 159.808 1201.14 156.289 1198.5 153.288C1195.98 150.288 1193.12 148.788 1189.91 148.788C1189.68 148.788 1189.23 148.788 1188.54 148.788C1187.97 148.673 1187.28 148.615 1186.48 148.615C1185.68 148.499 1184.93 148.442 1184.24 148.442C1183.56 148.326 1183.16 148.269 1183.04 148.269C1181.21 148.269 1179.61 149.134 1178.23 150.865C1176.97 152.596 1175.88 154.846 1174.97 157.616C1174.16 160.385 1173.54 163.559 1173.08 167.136C1172.62 170.713 1172.39 174.29 1172.39 177.868C1172.39 179.137 1172.73 181.618 1173.42 185.311C1174.11 188.888 1175.31 192.638 1177.03 196.562C1178.86 200.37 1181.27 203.774 1184.24 206.774C1187.22 209.775 1191 211.275 1195.58 211.275C1198.67 211.275 1201.19 210.352 1203.14 208.505C1205.09 206.543 1206.58 204.178 1207.61 201.408C1208.75 198.639 1209.55 195.812 1210.01 192.927C1210.47 189.926 1210.7 187.388 1210.7 185.311Z" fill="#0D0D0D"/>
<path d="M1156.87 178.56C1157.1 180.06 1157.21 181.272 1157.21 182.195C1157.33 183.118 1157.38 184.041 1157.38 184.964C1157.38 187.849 1156.98 191.254 1156.18 195.177C1155.49 199.1 1154.23 202.851 1152.4 206.428C1150.68 209.89 1148.34 212.89 1145.36 215.429C1142.49 217.852 1138.83 219.064 1134.36 219.064C1130.24 219.064 1126.35 217.91 1122.68 215.602C1119.02 213.179 1115.75 210.121 1112.89 206.428C1110.02 202.62 1107.73 198.408 1106.02 193.792C1104.41 189.061 1103.61 184.388 1103.61 179.772C1103.61 173.079 1104.01 167.367 1104.81 162.635C1105.73 157.789 1106.99 153.577 1108.59 150C1108.59 149.653 1108.36 149.307 1107.91 148.961C1107.56 148.615 1107.39 148.153 1107.39 147.576C1107.39 146.999 1107.91 146.249 1108.94 145.326C1110.08 144.403 1111.4 143.537 1112.89 142.73C1114.49 141.807 1116.04 141.056 1117.53 140.479C1119.13 139.787 1120.33 139.441 1121.13 139.441C1121.59 139.441 1122.34 139.672 1123.37 140.133C1124.51 140.595 1125.94 140.826 1127.66 140.826C1128.24 140.826 1128.81 140.768 1129.38 140.653C1129.95 140.537 1130.58 140.479 1131.27 140.479C1133.68 140.479 1136.25 141.633 1139 143.941C1141.86 146.134 1144.5 149.019 1146.9 152.596C1149.42 156.173 1151.54 160.27 1153.26 164.886C1155.09 169.386 1156.3 173.944 1156.87 178.56ZM1150 185.311C1150 183.118 1149.54 180.002 1148.62 175.964C1147.71 171.809 1146.33 167.771 1144.5 163.847C1142.67 159.808 1140.43 156.289 1137.8 153.288C1135.28 150.288 1132.42 148.788 1129.21 148.788C1128.98 148.788 1128.52 148.788 1127.83 148.788C1127.26 148.673 1126.57 148.615 1125.77 148.615C1124.97 148.499 1124.23 148.442 1123.54 148.442C1122.85 148.326 1122.45 148.269 1122.34 148.269C1120.5 148.269 1118.9 149.134 1117.53 150.865C1116.27 152.596 1115.18 154.846 1114.26 157.616C1113.46 160.385 1112.83 163.559 1112.37 167.136C1111.91 170.713 1111.69 174.29 1111.69 177.868C1111.69 179.137 1112.03 181.618 1112.72 185.311C1113.4 188.888 1114.61 192.638 1116.32 196.562C1118.16 200.37 1120.56 203.774 1123.54 206.774C1126.52 209.775 1130.3 211.275 1134.88 211.275C1137.97 211.275 1140.49 210.352 1142.44 208.505C1144.38 206.543 1145.87 204.178 1146.9 201.408C1148.05 198.639 1148.85 195.812 1149.31 192.927C1149.77 189.926 1150 187.388 1150 185.311Z" fill="#0D0D0D"/>
<path d="M1095.23 173.889C1095.23 174.466 1094.95 174.928 1094.37 175.274C1093.92 175.62 1093.34 175.909 1092.66 176.14C1092.08 176.37 1091.45 176.659 1090.77 177.005C1090.08 177.236 1089.56 177.524 1089.22 177.871L1090.42 186.006C1091.11 190.506 1091.68 194.891 1092.14 199.161C1092.71 203.431 1093 207.47 1093 211.278C1093 214.278 1092.66 216.99 1091.97 219.413C1091.4 221.721 1090.31 222.875 1088.71 222.875C1087.9 222.875 1087.16 221.894 1086.47 219.932C1085.9 217.855 1085.38 215.547 1084.93 213.009C1084.58 210.354 1084.3 207.758 1084.07 205.219C1083.95 202.565 1083.9 200.661 1083.9 199.507C1083.9 198.7 1083.84 197.43 1083.72 195.699C1083.61 193.853 1083.44 191.949 1083.21 189.987C1082.98 187.91 1082.75 186.006 1082.52 184.275C1082.29 182.429 1082.12 181.044 1082.01 180.121C1080.06 180.236 1077.42 180.525 1074.1 180.986C1070.78 181.332 1066.72 182.14 1061.91 183.41V185.487C1061.91 188.025 1062.02 190.853 1062.25 193.968C1062.48 196.969 1062.71 200.084 1062.94 203.315C1063.28 206.431 1063.57 209.604 1063.8 212.835C1064.02 215.951 1064.14 218.951 1064.14 221.836C1064.14 222.99 1064.02 223.913 1063.8 224.606C1063.57 225.414 1063.05 225.817 1062.25 225.817C1060.87 225.817 1059.79 225.125 1058.99 223.74C1058.3 222.356 1057.78 220.74 1057.44 218.894C1057.1 216.932 1056.81 214.913 1056.58 212.835C1056.47 210.758 1056.35 209.027 1056.24 207.643C1055.78 204.642 1055.38 201.181 1055.03 197.257C1054.8 193.218 1054.58 189.122 1054.35 184.967C1053.89 184.967 1053.32 184.852 1052.63 184.621C1051.94 184.275 1051.25 183.929 1050.57 183.583C1049.88 183.121 1049.31 182.66 1048.85 182.198C1048.39 181.736 1048.16 181.217 1048.16 180.64C1048.16 179.255 1048.79 178.159 1050.05 177.351C1051.31 176.428 1052.69 175.678 1054.17 175.101C1054.06 174.063 1054 172.966 1054 171.812C1054 170.543 1054 168.408 1054 165.408C1054 164.139 1054 162.292 1054 159.869C1054 157.33 1054 154.503 1054 151.387C1054 148.156 1054 144.637 1054 140.829C1054.12 137.021 1054.17 133.155 1054.17 129.231C1054.29 128.308 1054.58 127.212 1055.03 125.943C1055.49 124.558 1056.24 123.865 1057.27 123.865C1058.07 123.865 1058.76 124.212 1059.33 124.904C1059.9 125.481 1060.36 126.231 1060.7 127.154C1061.05 128.077 1061.28 129.058 1061.39 130.097C1061.62 131.02 1061.73 131.828 1061.73 132.52V173.889C1062.76 173.889 1064.14 173.832 1065.86 173.716C1067.57 173.601 1069.35 173.486 1071.18 173.37C1073.02 173.139 1074.79 172.909 1076.51 172.678C1078.34 172.447 1079.83 172.216 1080.97 171.985L1077.02 135.636C1076.91 134.828 1076.79 133.963 1076.68 133.039C1076.68 132.116 1076.68 131.366 1076.68 130.789C1076.68 128.481 1076.97 126.635 1077.54 125.25C1078.23 123.75 1079.2 123 1080.46 123C1082.06 123 1083.04 123.75 1083.38 125.25C1083.72 126.75 1083.95 128.943 1084.07 131.828C1084.18 133.674 1084.3 135.52 1084.41 137.367C1084.53 139.098 1084.7 140.829 1084.93 142.56L1088.88 171.812C1090.25 171.812 1091.63 171.928 1093 172.159C1094.49 172.274 1095.23 172.851 1095.23 173.889Z" fill="#0D0D0D"/>
<path d="M1038.79 183.579C1038.79 185.195 1038.33 186.868 1037.42 188.599C1036.62 190.33 1035.59 192.061 1034.33 193.792C1033.07 195.523 1031.69 197.196 1030.2 198.812C1028.71 200.312 1027.34 201.639 1026.08 202.793C1022.99 205.562 1019.78 208.216 1016.46 210.755C1013.25 213.178 1009.87 215.371 1006.32 217.333C1002.89 219.294 999.28 220.852 995.5 222.006C991.721 223.16 987.77 223.737 983.647 223.737C971.163 223.737 964.921 217.275 964.921 204.351C964.921 203.081 965.436 200.6 966.467 196.908C967.498 193.215 968.815 189.003 970.418 184.272C972.022 179.541 973.911 174.579 976.088 169.386C978.264 164.193 980.497 159.462 982.788 155.192C985.078 150.807 987.311 147.23 989.488 144.46C991.778 141.691 993.897 140.306 995.844 140.306C997.104 140.306 998.02 140.71 998.593 141.518C999.28 142.326 999.623 143.191 999.623 144.114C999.509 144.807 998.707 146.307 997.218 148.615C995.729 150.807 994.183 153.057 992.58 155.365C992.351 155.711 991.95 156.288 991.377 157.096C990.805 157.904 990.232 158.712 989.659 159.52C988.972 160.443 988.285 161.424 987.598 162.462C987.14 163.27 986.109 165.347 984.505 168.693C983.017 171.925 981.413 175.733 979.695 180.118C977.977 184.387 976.431 188.888 975.057 193.619C973.682 198.235 972.995 202.274 972.995 205.735C972.995 207.697 973.396 209.255 974.198 210.409C975.114 211.563 976.145 212.428 977.29 213.005C978.55 213.582 979.81 213.986 981.07 214.217C982.444 214.332 983.647 214.39 984.677 214.39C988.915 214.39 993.382 213.467 998.077 211.621C1002.89 209.659 1007.47 207.12 1011.82 204.005C1016.17 200.889 1020.18 197.312 1023.85 193.273C1027.51 189.118 1030.37 184.849 1032.44 180.464C1032.89 179.656 1033.35 179.137 1033.81 178.906C1034.38 178.675 1034.9 178.56 1035.36 178.56C1036.27 178.56 1037.07 179.194 1037.76 180.464C1038.45 181.733 1038.79 182.772 1038.79 183.579Z" fill="#0D0D0D"/>
<path d="M962.859 198.12C962.859 203.313 961.943 207.41 960.11 210.41C958.278 213.295 955.586 216.007 952.036 218.545C951.12 219.122 949.86 219.815 948.256 220.623C946.653 221.43 944.878 222.18 942.931 222.873C940.984 223.565 938.922 224.142 936.746 224.604C934.57 225.065 932.566 225.296 930.733 225.296C925.579 225.296 921.685 224.719 919.051 223.565C916.417 222.527 915.1 221.257 915.1 219.757C915.1 218.142 915.558 216.815 916.474 215.776C917.391 214.737 918.192 214.16 918.879 214.045L920.769 215.43C921.342 216.007 922.144 216.641 923.174 217.334C924.205 217.911 925.866 218.199 928.156 218.199C930.332 218.199 932.967 217.853 936.059 217.161C939.151 216.353 942.072 215.199 944.82 213.699C947.684 212.083 950.089 210.122 952.036 207.814C954.097 205.506 955.128 202.852 955.128 199.851C955.128 197.197 953.124 194.774 949.115 192.581C945.221 190.274 939.037 188.716 930.561 187.908C926.209 187.562 921.914 187.042 917.677 186.35C913.439 185.542 909.603 184.504 906.167 183.234C902.845 181.85 900.154 180.176 898.092 178.215C896.031 176.138 895 173.599 895 170.599C895 167.714 895.802 164.944 897.405 162.29C899.009 159.636 900.956 157.213 903.246 155.02C905.651 152.712 908.114 150.693 910.633 148.962C913.153 147.231 915.272 145.789 916.99 144.635C918.364 143.827 920.254 142.788 922.659 141.519C925.179 140.134 927.813 138.865 930.561 137.711C933.425 136.442 936.231 135.403 938.979 134.595C941.843 133.672 944.248 133.21 946.195 133.21C948.485 133.21 950.032 133.845 950.833 135.114C951.635 136.384 952.036 138.172 952.036 140.48C952.036 142.442 951.807 144.519 951.349 146.712C950.891 148.904 950.375 151.039 949.802 153.116C949.23 155.193 948.657 157.04 948.085 158.655C947.626 160.155 947.283 161.136 947.054 161.598C946.596 162.636 946.08 163.329 945.508 163.675C944.935 164.021 944.534 164.194 944.305 164.194C943.847 164.194 943.618 163.906 943.618 163.329C943.618 162.983 943.675 162.348 943.79 161.425C944.019 160.386 944.248 159.174 944.477 157.79C944.82 156.405 945.049 154.905 945.164 153.289C945.393 151.674 945.508 150.058 945.508 148.443C945.508 145.904 945.393 144.058 945.164 142.904C944.935 141.75 944.019 141.173 942.415 141.173C940.812 141.173 938.636 141.634 935.887 142.557C933.138 143.365 930.332 144.404 927.469 145.673C924.377 147.058 921.342 148.847 918.364 151.039C915.501 153.232 912.924 155.482 910.633 157.79C908.343 160.098 906.453 162.348 904.964 164.54C903.59 166.617 902.903 168.291 902.903 169.56C902.903 170.945 903.819 172.272 905.651 173.541C907.598 174.695 910.003 175.734 912.867 176.657C915.844 177.58 919.109 178.388 922.659 179.08C926.209 179.773 929.703 180.292 933.138 180.638C936.002 180.984 939.151 181.446 942.587 182.023C946.023 182.6 949.23 183.523 952.208 184.792C955.185 186.062 957.705 187.793 959.767 189.985C961.828 192.062 962.859 194.774 962.859 198.12Z" fill="#0D0D0D"/>
</svg>
